<svg
    xmlns="http://www.w3.org/2000/svg"
    data-name="Layer 1"
    width="64"
    height="64"
    viewBox="0 0 168 168"
>
    <circle cx="2" cy="149" r="2" fill="#2d4356"></circle>
    <path
    fill="#2d4356"
    d="M11 147H8a2 2 0 0 0 0 4h3a2 2 0 0 0 0-4zM160 147h-3a2 2 0 0 0 0 4h3a2 2 0 0 0 0-4z"
    ></path>
    <circle cx="166" cy="149" r="2" fill="#2d4356"></circle>
    <path
    fill="#0bceb2"
    d="M118.15387 155h-8.30774a2.00641 2.00641 0 0 0 0 4h8.30774a2.00641 2.00641 0 0 0 0-4zM58.15387 155H49.84613a2.00641 2.00641 0 0 0 0 4h8.30774a2.00641 2.00641 0 0 0 0-4zM104 155H64a2 2 0 0 0 0 4H79.94v2H72a2 2 0 0 0 0 4H97a2 2 0 0 0 0-4H88.06v-2H104a2 2 0 0 0 0-4z"
    ></path>
    <path
    fill="#2d4356"
    d="M20.99219,92.22754l6,3.5a2.00014,2.00014,0,0,0,2.01563,0l6-3.5A2.00074,2.00074,0,0,0,36,90.5V89h8.00549C44.00507,88.96185,44,88.92493,44,88.88672V85.1123c0-.0379.005-.07452.00543-.1123H36V83.5a2.00014,2.00014,0,0,0-.99219-1.72754l-6-3.5a2.00014,2.00014,0,0,0-2.01562,0l-6,3.5A2.00014,2.00014,0,0,0,20,83.5v7A2.00074,2.00074,0,0,0,20.99219,92.22754ZM24,84.64893l4-2.3335,4,2.3335v4.70264l-4,2.333-4-2.333Z"
    ></path>
    <path
    fill="#0bceb2"
    d="M110.94824 57.37549l2.67676 2.68018c.025.025.04565.05243.07031.07758l4.8479-4.84784 5.6062 1.47534a1.99861 1.99861 0 0 0 1.92285-.52l4.9502-4.94971a2.00057 2.00057 0 0 0 .52051-1.92285l-1.76758-6.71777a2.00115 2.00115 0 0 0-1.42578-1.42529l-6.71777-1.76758a1.99666 1.99666 0 0 0-1.92285.52l-4.94922 4.94971a2.00088 2.00088 0 0 0-.52051 1.92285l1.47546 5.60754-4.84595 4.84589C110.89453 57.32874 110.92267 57.35 110.94824 57.37549zm10.77637-13.75732l4.47852 1.17822 1.17871 4.47852-3.3252 3.3252-4.47754-1.17822-1.17871-4.47852zM57.05762 116.62891l-2.67773-2.67969c-.02655-.02649-.04865-.0556-.07483-.08234l-4.84784 4.84778-5.60663-1.4754a1.9992 1.9992 0 0 0-1.92285.52051l-4.9502 4.94922a2.00088 2.00088 0 0 0-.52051 1.92285l1.76758 6.71777a2.00179 2.00179 0 0 0 1.42578 1.42578l6.71777 1.76758a2.002 2.002 0 0 0 1.92285-.52051l4.94922-4.9502a2.00088 2.00088 0 0 0 .52051-1.92285l-1.4754-5.60663 4.84668-4.84662C57.10791 116.67261 57.08154 116.65277 57.05762 116.62891zm-10.7832 13.75293l-4.47754-1.17871-1.17871-4.47754 3.3252-3.3252 4.47754 1.17871 1.17871 4.47754z"
    ></path>
    <path
    fill="#2d4356"
    d="M56.90918,70.75537l2.30273,2.30225a28.20417,28.20417,0,0,0-2.60254,6.27588h-3.252A5.58638,5.58638,0,0,0,48,85.1123v3.77441A5.58709,5.58709,0,0,0,53.35742,94.667h3.252a28.29691,28.29691,0,0,0,2.60352,6.27734L56.90723,103.248a5.5898,5.5898,0,0,0,.30176,7.874l2.67188,2.67285a5.60414,5.60414,0,0,0,7.87891.29395l2.29688-2.30176a28.25261,28.25261,0,0,0,6.27539,2.60352v3.25293A5.589,5.589,0,0,0,82.11523,123H85.8877a5.58783,5.58783,0,0,0,5.78125-5.35645v-3.25293a28.20912,28.20912,0,0,0,6.27637-2.60449l2.30371,2.30664a5.59944,5.59944,0,0,0,7.876-.30078l2.67188-2.67187a5.59459,5.59459,0,0,0,.292-7.874l-2.2998-2.30078A28.34429,28.34429,0,0,0,111.3916,94.667h3.249A5.588,5.588,0,0,0,120,88.88672V85.1123a5.58731,5.58731,0,0,0-5.35937-5.77881h-3.249a28.17961,28.17961,0,0,0-2.60254-6.27686l2.30176-2.30322a5.59034,5.59034,0,0,0-.2959-7.87109L108.123,60.207a5.5897,5.5897,0,0,0-7.876-.29541l-2.30176,2.30029a28.1405,28.1405,0,0,0-6.27637-2.60254V56.35791A5.588,5.588,0,0,0,85.8877,51H82.11523a5.5892,5.5892,0,0,0-5.7832,5.35791v3.25146a28.14677,28.14677,0,0,0-6.27637,2.60205l-2.29883-2.30029A5.596,5.596,0,0,0,59.877,60.21l-2.665,2.66846A5.58706,5.58706,0,0,0,56.90918,70.75537Zm3.12988-5.04687,2.665-2.66895a1.64283,1.64283,0,0,1,2.22461-.2998l3.40234,3.4043a2.00035,2.00035,0,0,0,2.49316.271A24.238,24.238,0,0,1,78.75781,63.127a2,2,0,0,0,1.57422-1.9541V56.35791c0-.73584.81641-1.35791,1.7832-1.35791H85.8877a1.63576,1.63576,0,0,1,1.78125,1.35791v4.81494a1.99956,1.99956,0,0,0,1.57422,1.9541A24.25182,24.25182,0,0,1,97.17676,66.415a2.00075,2.00075,0,0,0,2.49219-.27l3.40723-3.40527a1.63649,1.63649,0,0,1,2.21973.29639l2.66895,2.67285a1.63467,1.63467,0,0,1,.29492,2.21826l-3.4043,3.40723a1.99986,1.99986,0,0,0-.26855,2.49268,24.28557,24.28557,0,0,1,3.28809,7.93359,2.00079,2.00079,0,0,0,1.9541,1.57275h4.81152A1.634,1.634,0,0,1,116,85.1123v3.77441a1.63526,1.63526,0,0,1-1.35937,1.78027H109.8291a2.00085,2.00085,0,0,0-1.9541,1.57227,24.33635,24.33635,0,0,1-3.29,7.93848,2.00074,2.00074,0,0,0,.27148,2.49121l3.40332,3.4043a1.63948,1.63948,0,0,1-.29395,2.2207l-2.667,2.667a1.64365,1.64365,0,0,1-2.22266.30273l-3.40625-3.41016a1.9983,1.9983,0,0,0-2.49414-.27051,24.28386,24.28386,0,0,1-7.93457,3.291,2.00086,2.00086,0,0,0-1.57227,1.9541v4.81543c0,.73535-.81543,1.35645-1.78125,1.35645H82.11523c-.9668,0-1.7832-.62109-1.7832-1.35645v-4.81543a2.00086,2.00086,0,0,0-1.57227-1.9541,24.24384,24.24384,0,0,1-7.93359-3.291,2.00027,2.00027,0,0,0-2.49609.27148l-3.39648,3.4043a1.645,1.645,0,0,1-2.22656-.29492l-2.66992-2.6709a1.63655,1.63655,0,0,1-.2998-2.21777l3.4082-3.40527a2.00069,2.00069,0,0,0,.27148-2.49219,24.33069,24.33069,0,0,1-3.29-7.93652,2,2,0,0,0-1.9541-1.57422H53.35742A1.63541,1.63541,0,0,1,52,88.88672V85.1123a1.63416,1.63416,0,0,1,1.35742-1.77881h4.81543a2,2,0,0,0,1.9541-1.57373A24.23875,24.23875,0,0,1,63.416,73.82666a2.00077,2.00077,0,0,0-.27051-2.49316l-3.40527-3.4043A1.63382,1.63382,0,0,1,60.03906,65.7085Z"
    ></path>
    <path
    fill="#0bceb2"
    d="M83.99872,102A15,15,0,1,0,69,87,15.00254,15.00254,0,0,0,83.99872,102Zm0-26A11,11,0,1,1,73,87,11.01311,11.01311,0,0,1,83.99872,76Z"
    ></path>
    <path
    fill="#2d4356"
    d="M76.99219 37.22754L82 40.14874v6.85681c.03882-.00043.07635-.00555.11523-.00555H85.8877c.0379 0 .07452.005.1123.00543V40.14874l5.00781-2.9212A2.00014 2.00014 0 0 0 92 35.5v-7a2.00014 2.00014 0 0 0-.99219-1.72754l-6-3.5a2.00014 2.00014 0 0 0-2.01562 0l-6 3.5A2.00014 2.00014 0 0 0 76 28.5v7A2.00014 2.00014 0 0 0 76.99219 37.22754zM80 29.64893l4-2.3335 4 2.3335v4.70215l-4 2.3335-4-2.3335zM124 85.1123v3.77441c0 .03821-.00507.07513-.00549.11328H132v1.5a2.00074 2.00074 0 0 0 .99219 1.72754l6 3.5a2.00014 2.00014 0 0 0 2.01563 0l6-3.5A2.00074 2.00074 0 0 0 148 90.5v-7a2.00014 2.00014 0 0 0-.99219-1.72754l-6-3.5a2.00014 2.00014 0 0 0-2.01562 0l-6 3.5A2.00014 2.00014 0 0 0 132 83.5V85h-8.00543C123.995 85.03778 124 85.0744 124 85.1123zm12-.46338l4-2.3335 4 2.3335v4.70264l-4 2.333-4-2.333z"
    ></path>
    <path
    fill="#0bceb2"
    d="M114.75977 129.07227l4.94922 4.9502a2.002 2.002 0 0 0 1.92285.52051l6.71777-1.76758a2.00179 2.00179 0 0 0 1.42578-1.42578l1.76758-6.71777a2.00088 2.00088 0 0 0-.52051-1.92285l-4.9502-4.94922a1.99982 1.99982 0 0 0-1.92285-.52051l-5.60663 1.4754-4.84564-4.84564c-.02356.02411-.0434.05042-.06726.07434l-2.67578 2.67676c-.0274.02734-.0575.05011-.08514.077l4.8457 4.84564-1.4754 5.60663A2.00088 2.00088 0 0 0 114.75977 129.07227zm4.81934-6.49316l4.47754-1.17871 3.3252 3.3252-1.17871 4.47754-4.47754 1.17871-3.3252-3.3252zM41.92773 56.24072a1.99861 1.99861 0 0 0 1.92285.52l5.6062-1.47534 4.84973 4.84973c.02869-.0293.053-.06116.08215-.09021l2.65723-2.66113c.028-.02789.05865-.05109.08691-.07861l-4.84753-4.84753 1.47546-5.60754a2.00088 2.00088 0 0 0-.52051-1.92285L48.291 39.97754a1.99852 1.99852 0 0 0-1.92285-.52L39.65039 41.2251a2.00115 2.00115 0 0 0-1.42578 1.42529L36.457 49.36816a2.00057 2.00057 0 0 0 .52051 1.92285zm-.13086-11.44434l4.47852-1.17822 3.32422 3.3252L48.4209 51.42188 43.94336 52.6001l-3.3252-3.3252z"
    ></path>
    <path
    fill="#2d4356"
    d="M150.72131 147h-59.42A1.989 1.989 0 0 0 92 145.5v-7a2.00074 2.00074 0 0 0-.99219-1.72754L86 133.85126v-6.85669c-.03778.00043-.0744.00543-.1123.00543H82.11523c-.03888 0-.07642-.00513-.11523-.00555v6.85681l-5.00781 2.9212A2.00074 2.00074 0 0 0 76 138.5v7a1.989 1.989 0 0 0 .69873 1.5h-59.42a2.017 2.017 0 1 0 0 4H150.72131a2.017 2.017 0 1 0 0-4zM80 139.64844l4-2.333 4 2.333v4.70313l-4 2.333-4-2.333zM68.30471 8a3 3 0 1 0-3-3A3.00344 3.00344 0 0 0 68.30471 8zm0-4.5a1.5 1.5 0 1 1-1.5 1.5A1.50148 1.50148 0 0 1 68.30471 3.5zM6 26a2 2 0 1 0 2 2A2.00229 2.00229 0 0 0 6 26zm0 3a1 1 0 1 1 1-1A1.001 1.001 0 0 1 6 29zM136 3a2 2 0 1 0 2 2A2.00229 2.00229 0 0 0 136 3zm0 3a1 1 0 1 1 1-1A1.001 1.001 0 0 1 136 6zM150 41.61816a2 2 0 1 0 2 2A2.00229 2.00229 0 0 0 150 41.61816zm0 3a1 1 0 1 1 1-1A1.001 1.001 0 0 1 150 44.61816zM46.00549 24a2 2 0 1 0-2 2A2.00229 2.00229 0 0 0 46.00549 24zm-3 0a1 1 0 1 1 1 1A1.001 1.001 0 0 1 43.00549 24z"
    ></path>
    <polygon
    fill="#0bceb2"
    points="16.442 52.749 17.929 50.794 16.99 50.262 16.036 52.452 16.004 52.452 15.035 50.277 14.079 50.825 15.55 52.734 15.55 52.765 13.25 52.468 13.25 53.532 15.566 53.235 15.566 53.266 14.079 55.174 14.971 55.738 15.989 53.532 16.019 53.532 16.958 55.722 17.944 55.159 16.442 53.281 16.442 53.25 18.804 53.532 18.804 52.468 16.442 52.781 16.442 52.749"
    ></polygon>
    <polygon
    fill="#0bceb2"
    points="21.334 5.153 20.478 6.252 20.991 6.577 21.577 5.306 21.595 5.306 22.136 6.568 22.704 6.243 21.839 5.162 21.839 5.144 23.199 5.306 23.199 4.694 21.839 4.874 21.839 4.856 22.695 3.73 22.154 3.423 21.604 4.684 21.586 4.684 21.028 3.432 20.478 3.747 21.325 4.847 21.325 4.865 20 4.694 20 5.306 21.334 5.135 21.334 5.153"
    ></polygon>
    <polygon
    fill="#0bceb2"
    points="166.724 15.317 166.724 14.273 164.407 14.58 164.407 14.55 165.866 12.631 164.945 12.11 164.009 14.258 163.977 14.258 163.027 12.125 162.089 12.662 163.533 14.535 163.533 14.565 161.276 14.273 161.276 15.317 163.548 15.026 163.548 15.056 162.089 16.928 162.964 17.481 163.963 15.317 163.992 15.317 164.913 17.466 165.881 16.913 164.407 15.071 164.407 15.041 166.724 15.317"
    ></polygon>
    <polygon
    fill="#0bceb2"
    points="116.748 19.586 118.006 17.931 117.211 17.481 116.404 19.334 116.377 19.334 115.557 17.494 114.748 17.958 115.993 19.573 115.993 19.599 114.047 19.348 114.047 20.248 116.006 19.996 116.006 20.023 114.748 21.638 115.503 22.115 116.364 20.248 116.39 20.248 117.185 22.101 118.019 21.625 116.748 20.036 116.748 20.009 118.746 20.248 118.746 19.348 116.748 19.612 116.748 19.586"
    ></polygon>
</svg>