<svg fill="none" xmlns="http://www.w3.org/2000/svg"><path d="M563.97 457.01c10.28-83.76-39.49-195.1-91.1-241.06-93.14-83-170.52-66.95-230.7-37.22-60.18 29.73-68.8 128.97-110.35 173.87-41.55 44.91-65.2 105.3-2.14 165.44 63.06 60.13 113.92 29.57 179.84 25.77 65.92-3.8 153.33 26.2 200.6.1 33.05-18.23 49.32-49.87 53.85-86.9z" fill="#007A5E"/><path opacity=".7" d="M563.97 457.01c10.28-83.76-39.49-195.1-91.1-241.06-93.14-83-170.52-66.95-230.7-37.22-60.18 29.73-68.8 128.97-110.35 173.87-41.55 44.91-65.2 105.3-2.14 165.44 63.06 60.13 113.92 29.57 179.84 25.77 65.92-3.8 153.33 26.2 200.6.1 33.05-18.23 49.32-49.87 53.85-86.9z" fill="#fff"/><path d="M303.12 454.06V145.45m-200.9 311.67h194.95l296.2 95.47" stroke="#263238" stroke-linecap="round" stroke-linejoin="round"/><path d="M190.99 449.88h-13.47V227.53h27.8l-12-43.23h-36l-12 43.23h27.8v222.35h-13.5a13.2 13.2 0 00-9.23 3.77 13.16 13.16 0 00-3.95 9.15v.2c.4 3.11 13.15 5.6 28.85 5.6s28.46-2.49 28.86-5.6a13.16 13.16 0 00-3.87-9.27 13.2 13.2 0 00-9.3-3.85z" fill="#263238"/><path d="M370.42 130.15v261.8l197.4 32.44V97.7l-197.4 32.44zm192.27 74.96l-100.3 5.68v-90.96l100.3-15.94V205.1zm-100.3 15.25l100.3-4.6v91.46l-100.3-4.68v-82.18zm-8.13 81.8l-80.53-3.75v-74l80.46-3.67.07 81.42zm0-181.04v90.17l-80.53 4.51v-81.9l80.53-12.78zm-80.53 185.9l80.46 4.63v89.33l-80.46-12.79v-81.16zm88.6 95.25v-90.15l100.3 5.76V418.2l-100.3-15.94z" fill="#68D391" stroke="#263238" stroke-linecap="round" stroke-linejoin="round"/><path d="M302.33 584.4c87.23 0 157.95-22 157.95-49.13 0-27.13-70.72-49.13-157.95-49.13-87.22 0-157.94 22-157.94 49.13 0 27.14 70.72 49.13 157.94 49.13z" fill="#007A5E"/><path opacity=".5" d="M302.33 584.4c87.23 0 157.95-22 157.95-49.13 0-27.13-70.72-49.13-157.95-49.13-87.22 0-157.94 22-157.94 49.13 0 27.14 70.72 49.13 157.94 49.13z" fill="#fff"/><path d="M289 318.63s-35.8-4.24-59.35 14.1c-23.55 18.35-43.8 95-43.34 131.72.47 36.71 14.14 55.03 48.52 70.07 34.38 15.03 98.42 9.4 134.21-1.88 35.8-11.3 47.57-50.77 47.1-71.95-.46-21.18-24.01-45.62-32.03-50.76-8-5.15-30.6-15.99-41.9-32.93-11.3-16.95-27.8-53.66-53.22-58.37z" fill="#007A5E"/><path opacity=".13" d="M375.61 530.1c-13.53-1.82-29.58-5.49-41.73-12.86-25.65-15.54-32.05-44.82-41.22-55.8-9.16-10.97-25.65-10.05-32.97-21.95-7.33-11.9 4.57-99.69-16.5-105.17a47.99 47.99 0 00-13.14-1.88c-.12.1-.28.19-.4.3-23.55 18.34-43.8 95-43.34 131.71.47 36.71 14.14 55.03 48.52 70.07 34.38 15.04 98.42 9.4 134.21-1.88a56.65 56.65 0 006.57-2.54z" fill="#000"/><path d="M289 318.63s-35.8-4.24-59.35 14.1c-23.55 18.35-43.8 95-43.34 131.72.47 36.71 14.14 55.03 48.52 70.07 34.38 15.03 98.42 9.4 134.21-1.88 35.8-11.3 47.57-50.77 47.1-71.95-.46-21.18-24.01-45.62-32.03-50.76-8-5.15-30.6-15.99-41.9-32.93-11.3-16.95-27.8-53.66-53.22-58.37z" stroke="#004231" stroke-linecap="round" stroke-linejoin="round"/><path d="M274.9 335.2s-23.36 4.47-27.48 8.58-21.3 68.6-21.3 68.6a25.6 25.6 0 0114.43.69c6.87 2.74 7.55 9.94 8.24 13.37a122.38 122.38 0 011.03 12.35s69.43-6.19 84.2-9.6c14.77-3.42 37.25-5 37.25-5s-37.98-85.54-43.82-88.63c-5.84-3.08-30.23-3.43-33.66-2.74-3.44.69-18.9 2.39-18.9 2.39z" fill="#68D391" stroke="#263238" stroke-linecap="round" stroke-linejoin="round"/><path d="M251.88 414.44l5.84-47.68m-1.37 12.7l7.9-10.3m15.8 16.47s22.33-7.2 37.1-7.2" stroke="#fff" stroke-linecap="round" stroke-linejoin="round"/><path d="M301.13 365.97l-1.5 11.43s3.78 0 4.12 1.71a4.56 4.56 0 01-1.37 3.43s10.64 5.83 12.02 12.7" stroke="#fff" stroke-linecap="round" stroke-linejoin="round"/><path d="M287.71 322.42s-12.81 4.12-14.66 7.31c-1.84 3.2-.45 25.62-.45 28.36 0 2.75 1.6-1.6 2.98-4.8 1.38-3.2 6.19-8.01 7.78-7.55 1.6.47 2.53 2.28 2.53 5.26s3.65 7.1 6.87 9.37a198.57 198.57 0 016.18 4.58s6.64-9.6 8.24-12.13c1.61-2.52 1.38-7.76 1.6-9.6.22-1.84 4.35 5.03 5.27 3.21.93-1.83-2.06-3.43-5.27-8.47s-2.28-10.29-7.1-13.95c-4.8-3.66-10.3-2.52-13.97-1.59z" fill="#fff"/><path d="M273.06 329.72c-1.21 2.14-1.02 12.81-.75 20.58 2.93-3.76 8.96-10.87 12.45-9.52 4.45 1.71 6.16 14.35 6.16 14.35l-3.01-32.71h-.2s-12.81 4.12-14.66 7.3z" fill="#0F4C81"/><path opacity=".5" d="M273.06 329.72c-1.21 2.14-1.02 12.81-.75 20.58 2.93-3.76 8.96-10.87 12.45-9.52 4.45 1.71 6.16 14.35 6.16 14.35l-3.01-32.71h-.2s-12.81 4.12-14.66 7.3z" fill="#fff"/><path d="M287.71 322.42s-12.81 4.12-14.66 7.31c-1.84 3.2-.45 25.62-.45 28.36 0 2.75 1.6-1.6 2.98-4.8 1.38-3.2 6.19-8.01 7.78-7.55 1.6.47 2.53 2.28 2.53 5.26s3.65 7.1 6.87 9.37a198.57 198.57 0 016.18 4.58s6.64-9.6 8.24-12.13c1.61-2.52 1.38-7.76 1.6-9.6.22-1.84 4.35 5.03 5.27 3.21.93-1.83-2.06-3.43-5.27-8.47s-2.28-10.29-7.1-13.95c-4.8-3.66-10.3-2.52-13.97-1.59z" stroke="#263238" stroke-linecap="round" stroke-linejoin="round"/><path d="M257.38 415.13s-7.9-11.32-17.52-12.35c-9.62-1.03-21.3 6.86-21.64 9.6-.35 2.75-2.75 17.5-1.03 19.55 1.72 2.06 8.24 3.78 20.95-.34 12.71-4.12 17.86-9.26 19.24-16.46z" fill="#fff"/><path d="M225.24 431.58s-2.75-7.85-1.37-10.58c1.37-2.73 6.87-6.86 10.26-10.98 3.4-4.11-8.01 2.32-8.56 0-.43-1.86 6.03-5.6 8.57-6.98-8 1.54-15.65 7.1-15.92 9.3-.34 2.75-2.75 17.5-1.03 19.55.88 1.06 3.06 2.03 6.7 2.16.83-1.42 1.35-2.47 1.35-2.47z" fill="#0F4C81"/><path opacity=".5" d="M225.24 431.58s-2.75-7.85-1.37-10.58c1.37-2.73 6.87-6.86 10.26-10.98 3.4-4.11-8.01 2.32-8.56 0-.43-1.86 6.03-5.6 8.57-6.98-8 1.54-15.65 7.1-15.92 9.3-.34 2.75-2.75 17.5-1.03 19.55.88 1.06 3.06 2.03 6.7 2.16.83-1.42 1.35-2.47 1.35-2.47z" fill="#fff"/><path d="M257.38 415.13s-7.9-11.32-17.52-12.35c-9.62-1.03-21.3 6.86-21.64 9.6-.35 2.75-2.75 17.5-1.03 19.55 1.72 2.06 8.24 3.78 20.95-.34 12.71-4.12 17.86-9.26 19.24-16.46z" stroke="#263238" stroke-linecap="round" stroke-linejoin="round"/><path d="M230.58 418.21s-12.88 5.1-13.4 15.1c-.28 5.48 8.94 7.88 18.56 7.88s23.35-12 32.29-17.15c8.93-5.14 29.54-17.15 31.94-18.17 2.4-1.03 10.65 1.71 14.08 2.74a46.45 46.45 0 009.97 1.03s4.8 7.54 7.21 7.54c2.4 0-5.15-11.31-6.18-13.72-1.03-2.4-17.86-7.88-19.93-7.88s-50.15 12-57.36 14.74c-7.21 2.75-17.18 7.9-17.18 7.9z" fill="#fff"/><path d="M257.53 416.79c19.63-9.81 47.6-21.22 47.6-21.22-2.07 0-50.16 12.01-57.37 14.75-7.21 2.75-17.18 7.9-17.18 7.9s-12.88 5.1-13.4 15.08c-.28 5.5 8.94 7.9 18.56 7.9s23.36-12.01 32.29-17.16l5.41-3.12c-13.12 1.66-30.67 3.22-15.91-4.13z" fill="#0F4C81"/><path opacity=".5" d="M257.53 416.79c19.63-9.81 47.6-21.22 47.6-21.22-2.07 0-50.16 12.01-57.37 14.75-7.21 2.75-17.18 7.9-17.18 7.9s-12.88 5.1-13.4 15.08c-.28 5.5 8.94 7.9 18.56 7.9s23.36-12.01 32.29-17.16l5.41-3.12c-13.12 1.66-30.67 3.22-15.91-4.13z" fill="#fff"/><path d="M230.58 418.21s-12.88 5.1-13.4 15.1c-.28 5.48 8.94 7.88 18.56 7.88s23.35-12 32.29-17.15c8.93-5.14 29.54-17.15 31.94-18.17 2.4-1.03 10.65 1.71 14.08 2.74a46.45 46.45 0 009.97 1.03s4.8 7.54 7.21 7.54c2.4 0-5.15-11.31-6.18-13.72-1.03-2.4-17.86-7.88-19.93-7.88s-50.15 12-57.36 14.74c-7.21 2.75-17.18 7.9-17.18 7.9z" stroke="#263238" stroke-linecap="round" stroke-linejoin="round"/><path d="M331.05 341.93l-10.47 58.79 75.57.34 11.24-55.75a3.47 3.47 0 00-3.3-4.12l-69.52-2.09a3.46 3.46 0 00-3.52 2.83v0z" fill="#fff" stroke="#263238" stroke-linecap="round" stroke-linejoin="round"/><path d="M320.58 400.72l-36.8 25.99 84.16-2.4 28.21-23.25-75.57-.34z" fill="#fff"/><path d="M320.58 400.72l-36.8 25.99 84.16-2.4 28.21-23.25-75.57-.34z" fill="#0F4C81"/><path opacity=".5" d="M320.58 400.72l-36.8 25.99 84.16-2.4 28.21-23.25-75.57-.34z" fill="#fff"/><path d="M320.58 400.72l-36.8 25.99 84.16-2.4 28.21-23.25-75.57-.34z" stroke="#263238" stroke-linecap="round" stroke-linejoin="round"/><path d="M348.4 426.44s30.23-26.4 60.12-35.32c29.88-8.92 36.06-7.55 35.38 5.83-.69 13.37-15.12 83.35-24.73 101.18-9.62 17.84-21.64 50.42-21.3 56.6.34 6.17 12.02 24.35 22.33 30.87 10.3 6.51 9.27 14.4 2.74 15.77-6.52 1.38-14.08 3.78-36.4-10.63-22.33-14.4-31.6-34.98-30.23-40.13 1.37-5.14 15.8-12 21.64-22.3 5.84-10.28 15.45-48.7 16.14-66.2a103.78 103.78 0 016.87-32.23s-37.78 6.86-48.78 13.72l-3.78-17.15z" fill="#fff"/><path d="M348.4 426.44s30.23-26.4 60.12-35.32c29.88-8.92 36.06-7.55 35.38 5.83-.69 13.37-15.12 83.35-24.73 101.18-9.62 17.84-21.64 50.42-21.3 56.6.34 6.17 12.02 24.35 22.33 30.87 10.3 6.51 9.27 14.4 2.74 15.77-6.52 1.38-14.08 3.78-36.4-10.63-22.33-14.4-31.6-34.98-30.23-40.13 1.37-5.14 15.8-12 21.64-22.3 5.84-10.28 15.45-48.7 16.14-66.2a103.78 103.78 0 016.87-32.23s-37.78 6.86-48.78 13.72l-3.78-17.15z" fill="#0F4C81"/><path opacity=".5" d="M348.4 426.44s30.23-26.4 60.12-35.32c29.88-8.92 36.06-7.55 35.38 5.83-.69 13.37-15.12 83.35-24.73 101.18-9.62 17.84-21.64 50.42-21.3 56.6.34 6.17 12.02 24.35 22.33 30.87 10.3 6.51 9.27 14.4 2.74 15.77-6.52 1.38-14.08 3.78-36.4-10.63-22.33-14.4-31.6-34.98-30.23-40.13 1.37-5.14 15.8-12 21.64-22.3 5.84-10.28 15.45-48.7 16.14-66.2a103.78 103.78 0 016.87-32.23s-37.78 6.86-48.78 13.72l-3.78-17.15z" fill="#fff"/><path d="M348.4 426.44s30.23-26.4 60.12-35.32c29.88-8.92 36.06-7.55 35.38 5.83-.69 13.37-15.12 83.35-24.73 101.18-9.62 17.84-21.64 50.42-21.3 56.6.34 6.17 12.02 24.35 22.33 30.87 10.3 6.51 9.27 14.4 2.74 15.77-6.52 1.38-14.08 3.78-36.4-10.63-22.33-14.4-31.6-34.98-30.23-40.13 1.37-5.14 15.8-12 21.64-22.3 5.84-10.28 15.45-48.7 16.14-66.2a103.78 103.78 0 016.87-32.23s-37.78 6.86-48.78 13.72l-3.78-17.15z" stroke="#263238" stroke-linecap="round" stroke-linejoin="round"/><path d="M377.95 528.32c-.44.76-.94 1.5-1.46 2.25a35.33 35.33 0 0119.32 8.04 60.49 60.49 0 014.7 4.54 299.8 299.8 0 0118.66-45.02c9.61-17.83 24.04-87.8 24.73-101.18.69-13.38-5.5-14.75-35.38-5.83-29.89 8.91-60.11 35.33-60.11 35.33l3.77 17.15c11-6.86 48.78-13.72 48.78-13.72a103.78 103.78 0 00-6.87 32.24c-.69 17.49-10.3 55.9-16.14 66.2z" fill="#fff" stroke="#263238" stroke-linecap="round" stroke-linejoin="round"/><path d="M377.95 528.32c-.44.76-.94 1.5-1.46 2.25a35.33 35.33 0 0119.32 8.04 60.49 60.49 0 014.7 4.54c6.58-8.84 13.98-36.7 22.34-48.17 21.58-29.62 20.36-84.66 21.05-98.03.69-13.38-5.5-14.75-35.38-5.83-29.89 8.91-60.11 35.33-60.11 35.33l3.77 17.15c11-6.86 48.78-13.72 48.78-13.72a103.78 103.78 0 00-6.87 32.24c-.69 17.49-10.3 55.9-16.14 66.2z" fill="#68D391"/><path opacity=".53" d="M377.95 528.32c-.44.76-.94 1.5-1.46 2.25a35.33 35.33 0 0119.32 8.04 60.49 60.49 0 014.7 4.54c6.58-8.84 13.98-36.7 22.34-48.17 21.58-29.62 20.36-84.66 21.05-98.03.69-13.38-5.5-14.75-35.38-5.83-29.89 8.91-60.11 35.33-60.11 35.33l3.77 17.15c11-6.86 48.78-13.72 48.78-13.72a103.78 103.78 0 00-6.87 32.24c-.69 17.49-10.3 55.9-16.14 66.2z" fill="#fff"/><path opacity=".14" d="M429.38 395.14c-.54-4.87-53.67 17.59-76.08 27.27-3.1 2.47-4.9 4.03-4.9 4.03l3.78 17.15c11-6.86 48.78-13.72 48.78-13.72a103.78 103.78 0 00-6.87 32.25c-.69 17.49-10.3 55.9-16.14 66.2-.44.76-.94 1.5-1.46 2.25a38.98 38.98 0 0111 2.84c8.22-17.54 17.08-37.94 21.27-53.9 7.56-28.8 21.3-78.2 20.61-84.37z" fill="#000"/><path d="M400.96 429.88s10.3-20.93 19.24-29.5m-42.25 127.94c-.44.76-.94 1.5-1.46 2.25a35.33 35.33 0 0119.32 8.04 60.49 60.49 0 014.7 4.54c6.58-8.84 13.98-36.7 22.34-48.17 21.58-29.62 20.36-84.66 21.05-98.03.69-13.38-5.5-14.75-35.38-5.83-29.89 8.91-60.11 35.33-60.11 35.33l3.77 17.15c11-6.86 48.78-13.72 48.78-13.72a103.78 103.78 0 00-6.87 32.24c-.69 17.49-10.3 55.9-16.14 66.2z" stroke="#263238" stroke-linecap="round" stroke-linejoin="round"/><path d="M303.12 454.13a118.33 118.33 0 0032.5-6.1c15.53-5.66-12.73-16-23.56-10.35a16.08 16.08 0 00-7.12 6.8 16.05 16.05 0 00-1.82 9.65v0z" fill="#68D391" stroke="#263238" stroke-linecap="round" stroke-linejoin="round"/><path d="M258.4 431.93s-10.98 6.18-14.76 13.04c-3.78 6.86 12.47 18.29 29.65 17.6 17.17-.69 48.67-19.32 48.67-19.32s.34 30.19 6.18 41.16c5.84 10.98 32.63 37.73 43.28 44.6 10.65 6.85 46.37 32.58 51.87 36.7 5.5 4.1 15.8 11.66 18.2 12 2.4.34 27.48-30.19 33.32-40.48 5.84-10.29 11-31.9 8.93-36.7-2.06-4.8-6.18-.68-10.3 2.75s-41.9 28.47-45.34 30.18a37.76 37.76 0 01-5.84 2.4s-30.92-29.5-47.4-52.13-17.87-51.8-24.05-62.77c-6.18-10.98-15.11-15.78-28.51-14.4-13.4 1.36-41.22 8.57-63.9 25.37z" fill="#fff"/><path d="M403.75 551.54c9.18 6.56 17.16 12.35 19.54 14.14 5.5 4.11 15.8 11.66 18.2 12 .86.12 4.57-3.65 9.25-9.01l-39.34-25.28-7.65 8.15z" fill="#0F4C81"/><path opacity=".5" d="M403.75 551.54c9.18 6.56 17.16 12.35 19.54 14.14 5.5 4.11 15.8 11.66 18.2 12 .86.12 4.57-3.65 9.25-9.01l-39.34-25.28-7.65 8.15z" fill="#fff"/><path d="M258.4 431.93s-10.98 6.18-14.76 13.04c-3.78 6.86 12.47 18.29 29.65 17.6 17.17-.69 48.67-19.32 48.67-19.32s.34 30.19 6.18 41.16c5.84 10.98 32.63 37.73 43.28 44.6 10.65 6.85 46.37 32.58 51.87 36.7 5.5 4.1 15.8 11.66 18.2 12 2.4.34 27.48-30.19 33.32-40.48 5.84-10.29 11-31.9 8.93-36.7-2.06-4.8-6.18-.68-10.3 2.75s-41.9 28.47-45.34 30.18a37.76 37.76 0 01-5.84 2.4s-30.92-29.5-47.4-52.13-17.87-51.8-24.05-62.77c-6.18-10.98-15.11-15.78-28.51-14.4-13.4 1.36-41.22 8.57-63.9 25.37z" stroke="#263238" stroke-linecap="round" stroke-linejoin="round"/><path d="M420.13 533.8c-7.27-7.07-34.52-43.58-45.28-64.58-15.76-30.76-17.46-41.24-23.64-52.21-6.19-10.98-15.51-11.83-28.86-10.46-13.34 1.37-37.37 3.86-66.77 20.51 0 0-12.37 6.7-16.13 13.56-3.77 6.86 9.99 24.13 33.9 21.95 17.11-1.56 48.66-19.32 48.66-19.32s.34 30.19 6.18 41.16c5.84 10.98 32.64 37.73 43.28 44.6 6.75 4.34 23.58 16.28 36.4 25.47 3.16-11.48 8.84-17.77 12.26-20.68z" fill="#68D391"/><path opacity=".53" d="M420.13 533.8c-7.27-7.07-34.52-43.58-45.28-64.58-15.76-30.76-17.46-41.24-23.64-52.21-6.19-10.98-15.51-11.83-28.86-10.46-13.34 1.37-37.37 3.86-66.77 20.51 0 0-12.37 6.7-16.13 13.56-3.77 6.86 9.99 24.13 33.9 21.95 17.11-1.56 48.66-19.32 48.66-19.32s.34 30.19 6.18 41.16c5.84 10.98 32.64 37.73 43.28 44.6 6.75 4.34 23.58 16.28 36.4 25.47 3.16-11.48 8.84-17.77 12.26-20.68z" fill="#fff"/><path opacity=".14" d="M351.06 485c-10.3-26.07-4.12-78.2-32.98-71.34-21.02 5-59.56 22.75-78.92 32 2.3 7.88 14.93 18.67 34.13 16.91 17.12-1.56 48.67-19.32 48.67-19.32s.34 30.19 6.18 41.16c5.84 10.98 32.63 37.73 43.28 44.6 6.75 4.34 23.58 16.28 36.4 25.47a49.02 49.02 0 014.8-11.48c-25.6-18.9-55.8-43.44-61.56-58z" fill="#000"/><path d="M321.96 443.25l-1.03-17.83m99.2 108.38c-7.27-7.07-34.52-43.58-45.28-64.58-15.76-30.76-17.46-41.24-23.64-52.21-6.19-10.98-15.51-11.83-28.86-10.46-13.34 1.37-37.37 3.86-66.77 20.51 0 0-12.37 6.7-16.13 13.56-3.77 6.86 9.99 24.13 33.9 21.95 17.11-1.56 48.66-19.32 48.66-19.32s.34 30.19 6.18 41.16c5.84 10.98 32.64 37.73 43.28 44.6 6.75 4.34 23.58 16.28 36.4 25.47 3.16-11.48 8.84-17.77 12.26-20.68z" stroke="#263238" stroke-linecap="round" stroke-linejoin="round"/><path d="M423.29 565.7c5.5 4.12 15.8 11.66 18.2 12 2.4.35 27.48-30.18 33.32-40.47s11-31.9 8.93-36.7c-2.06-4.8-6.18-.68-10.3 2.75s-41.9 28.47-45.34 30.18c-.91.45-1.73.82-2.46 1.14-1 1.88-2.2 4.79-1.38 6.75 1.38 3.09 7.22 7.2 7.22 7.2l-10.4 15.56 2.2 1.6z" fill="#68D391" stroke="#263238" stroke-linecap="round" stroke-linejoin="round"/><path d="M474.81 537.23c5.84-10.29 11-31.9 8.93-36.7-1.2-2.74-3.07-2.56-5.26-1.22 1.44 6.4 0 18.77-7.1 32.1-6.34 11.88-25.9 32.92-35.73 43.1a23.04 23.04 0 005.87 3.2c2.38.34 27.45-30.19 33.3-40.48z" fill="#fff"/><path d="M441.84 577.61l.3-.15.08-.07c.17-.1.32-.2.47-.33l.16-.13.4-.33.22-.2.54-.5.33-.32.45-.44.39-.38.38-.39.98-1.02.16-.17.6-.66.25-.26a182.64 182.64 0 002.28-2.54v-.07l.86-.96-6-3.85a566.1 566.1 0 01-9.12 9.67l.92.6.14.09.85.53 1.38.78.38.22.39.21.44.22.28.14c.14.07.28.13.43.18l.2.08c.16.06.33.1.5.13a.52.52 0 00.26 0l.1-.08z" fill="#0F4C81"/><path opacity=".5" d="M441.84 577.61l.3-.15.08-.07c.17-.1.32-.2.47-.33l.16-.13.4-.33.22-.2.54-.5.33-.32.45-.44.39-.38.38-.39.98-1.02.16-.17.6-.66.25-.26a182.64 182.64 0 002.28-2.54v-.07l.86-.96-6-3.85a566.1 566.1 0 01-9.12 9.67l.92.6.14.09.85.53 1.38.78.38.22.39.21.44.22.28.14c.14.07.28.13.43.18l.2.08c.16.06.33.1.5.13a.52.52 0 00.26 0l.1-.08z" fill="#fff"/><path d="M474.81 537.23c5.84-10.29 11-31.9 8.93-36.7-1.2-2.74-3.07-2.56-5.26-1.22 1.44 6.4 0 18.77-7.1 32.1-6.34 11.88-25.9 32.92-35.73 43.1a23.04 23.04 0 005.87 3.2c2.38.34 27.45-30.19 33.3-40.48z" stroke="#263238" stroke-linecap="round" stroke-linejoin="round"/><path d="M420.2 585.6c-10.3-6.52-21.99-24.7-22.33-30.87a9.75 9.75 0 01.16-2.02 9.83 9.83 0 00-5.66 2.02 131.38 131.38 0 00-13.4-10.64 28.09 28.09 0 00-12.36-3.69c-4.99 4.12-9.62 7.41-10.35 10.21-1.37 5.15 7.9 25.73 30.23 40.13 22.33 14.4 29.89 12 36.41 10.63 6.53-1.37 7.6-9.26-2.7-15.77z" fill="#68D391" stroke="#263238" stroke-linecap="round" stroke-linejoin="round"/><path d="M420.2 585.6a44.85 44.85 0 01-9.15-8.24c-7.1-3.01-16.56-6.86-24.86-12.01-8.93-5.5-6.87-8.92-12.02-14.07-3.96-3.95-11.74-4.46-15.12-4.48a9.48 9.48 0 00-2.74 3.8c-1.38 5.14 7.9 25.72 30.22 40.13 22.33 14.4 29.89 12 36.42 10.63 6.52-1.37 7.55-9.25-2.75-15.76z" fill="#fff"/><path d="M420.2 585.6a44.85 44.85 0 01-9.15-8.24c-7.1-3.01-16.56-6.86-24.86-12.01-8.93-5.5-6.87-8.92-12.02-14.07-3.96-3.95-11.74-4.46-15.12-4.48a9.48 9.48 0 00-2.74 3.8c-1.38 5.14 7.9 25.72 30.22 40.13 22.33 14.4 29.89 12 36.42 10.63 6.52-1.37 7.55-9.25-2.75-15.76z" fill="#0F4C81"/><path opacity=".5" d="M420.2 585.6a44.85 44.85 0 01-9.15-8.24c-7.1-3.01-16.56-6.86-24.86-12.01-8.93-5.5-6.87-8.92-12.02-14.07-3.96-3.95-11.74-4.46-15.12-4.48a9.48 9.48 0 00-2.74 3.8c-1.38 5.14 7.9 25.72 30.22 40.13 22.33 14.4 29.89 12 36.42 10.63 6.52-1.37 7.55-9.25-2.75-15.76z" fill="#fff"/><path d="M420.2 585.6a44.85 44.85 0 01-9.15-8.24c-7.1-3.01-16.56-6.86-24.86-12.01-8.93-5.5-6.87-8.92-12.02-14.07-3.96-3.95-11.74-4.46-15.12-4.48a9.48 9.48 0 00-2.74 3.8c-1.38 5.14 7.9 25.72 30.22 40.13 22.33 14.4 29.89 12 36.42 10.63 6.52-1.37 7.55-9.25-2.75-15.76z" stroke="#263238" stroke-linecap="round" stroke-linejoin="round"/><path d="M421.91 588c-8.93-5.15-27.13-8.58-38.81-16.47-11.68-7.88-8.59-14.74-17.18-20.23a8.74 8.74 0 00-9.61-.55c-1.2 5.35 8.1 25.7 30.22 40 22.13 14.29 29.89 12 36.42 10.63 4.34-.92 6.22-4.71 3.98-9.06a18.73 18.73 0 00-5.02-4.32z" fill="#68D391"/><path opacity=".53" d="M421.91 588c-8.93-5.15-27.13-8.58-38.81-16.47-11.68-7.88-8.59-14.74-17.18-20.23a8.74 8.74 0 00-9.61-.55c-1.2 5.35 8.1 25.7 30.22 40 22.13 14.29 29.89 12 36.42 10.63 4.34-.92 6.22-4.71 3.98-9.06a18.73 18.73 0 00-5.02-4.32z" fill="#fff"/><path d="M421.91 588c-8.93-5.15-27.13-8.58-38.81-16.47-11.68-7.88-8.59-14.74-17.18-20.23a8.74 8.74 0 00-9.61-.55c-1.2 5.35 8.1 25.7 30.22 40 22.13 14.29 29.89 12 36.42 10.63 4.34-.92 6.22-4.71 3.98-9.06a18.73 18.73 0 00-5.02-4.32v0z" stroke="#263238" stroke-linecap="round" stroke-linejoin="round"/><path d="M250.74 522.39s6.6-8 7.53-1.88c.94 6.12-.47 17.4-5.18 21.62-4.71 4.23-7.06-2.34-7.06-2.34l2.83-3.76s2.35 4.7 4.23-2.83c1.88-7.53-3.76-6.58-3.76-6.58l1.41-4.23z" fill="#fff" stroke="#263238" stroke-linecap="round" stroke-linejoin="round"/><path d="M245.7 552.5c-3.9 2.87-16.63 2.87-20.51 0-8.25-6.12-6.87-35.61-6.87-35.61h34.15s1.49 29.5-6.77 35.6z" fill="#fff" stroke="#263238" stroke-linecap="round" stroke-linejoin="round"/><path d="M222.05 511.1c0-3.7 3.45-3.7 3.45-7.43s-3.45-3.71-3.45-7.42c0-3.7 3.45-3.72 3.45-7.43s-3.45-3.72-3.45-7.44 3.45-3.72 3.45-7.44m8.35 37.16c0-2.75 3.45-2.75 3.45-5.64 0-2.9-3.45-2.81-3.45-5.64 0-2.83 3.45-2.81 3.45-5.64 0-2.83-3.45-2.83-3.45-5.65 0-2.83 3.45-2.82 3.45-5.64m9.54 28.2c0-3.7 3.43-3.7 3.43-7.41s-3.43-3.72-3.43-7.43c0-3.7 3.43-3.72 3.43-7.43s-3.43-3.72-3.43-7.44 3.43-3.72 3.43-7.44" stroke="#263238" stroke-linecap="round" stroke-linejoin="round"/><path d="M252.5 516.89c0 .86-7.64 1.55-17.08 1.55s-17.08-.69-17.08-1.55c0-.87 7.64-1.55 17.08-1.55s17.08.68 17.08 1.55z" fill="#fff" stroke="#263238" stroke-linecap="round" stroke-linejoin="round"/><path d="M284.03 304.58s1.61 17.33 2.28 22.8c.68 5.48 2.2 21.2 3.78 26.4 1.58 5.2 10.2 14.25 11 12.16.8-2.09 5.08-16.23 3.38-24.7-1.7-8.46-2.23-15.7-1.17-17.83 1.06-2.14 4.86-4.54 4.86-4.54a138.3 138.3 0 01-12.9-7.5c-6.07-4.04-10.37-8.61-11.23-6.79z" fill="#fff"/><path d="M306.09 319.8l-1.38-2.66c-2.53-1.37-6.04-3.4-9.38-5.64-6.12-4.12-10.42-8.74-11.27-6.86 0 0 1.6 17.33 2.28 22.8.68 5.48 2.2 21.2 3.78 26.4a17.72 17.72 0 002.21 4.28c-1.66-10.35.14-29.03.14-29.03l13.62-9.3z" fill="#0F4C81"/><path opacity=".5" d="M306.09 319.8l-1.38-2.66c-2.53-1.37-6.04-3.4-9.38-5.64-6.12-4.12-10.42-8.74-11.27-6.86 0 0 1.6 17.33 2.28 22.8.68 5.48 2.2 21.2 3.78 26.4a17.72 17.72 0 002.21 4.28c-1.66-10.35.14-29.03.14-29.03l13.62-9.3z" fill="#fff"/><path d="M284.03 304.58s1.61 17.33 2.28 22.8c.68 5.48 2.2 21.2 3.78 26.4 1.58 5.2 10.2 14.25 11 12.16.8-2.09 5.08-16.23 3.38-24.7-1.7-8.46-2.23-15.7-1.17-17.83 1.06-2.14 4.86-4.54 4.86-4.54a138.3 138.3 0 01-12.9-7.5c-6.07-4.04-10.37-8.61-11.23-6.79z" stroke="#263238" stroke-linecap="round" stroke-linejoin="round"/><path d="M283.4 307.1s9.9 8.23 17.48 11.25c7.58 3.01 19.23 2.82 20.9-1.12 1.66-3.93-2.89-35.12-6.8-43.32-3.92-8.2-8.1-8.35-15-8.98-6.92-.63-20.74 5-23.17 11.67-2.44 6.66.34 16.1 2.35 21.7a41.11 41.11 0 004.24 8.8z" fill="#fff"/><path d="M301.17 306.72c-3.5-10.37-4.39-26.7-4.39-31.04 0-3.37 8.77-7.06 12.77-8.57-2.63-1.61-5.68-1.82-9.62-2.18-6.87-.61-20.73 5-23.16 11.66-2.44 6.67.34 16.11 2.34 21.71a41.12 41.12 0 004.25 8.8s9.9 8.23 17.48 11.24a31.53 31.53 0 0016.48 1.58c-5.42-2.04-13.82-6.27-16.15-13.2z" fill="#0F4C81"/><path opacity=".5" d="M301.17 306.72c-3.5-10.37-4.39-26.7-4.39-31.04 0-3.37 8.77-7.06 12.77-8.57-2.63-1.61-5.68-1.82-9.62-2.18-6.87-.61-20.73 5-23.16 11.66-2.44 6.67.34 16.11 2.34 21.71a41.12 41.12 0 004.25 8.8s9.9 8.23 17.48 11.24a31.53 31.53 0 0016.48 1.58c-5.42-2.04-13.82-6.27-16.15-13.2z" fill="#fff"/><path d="M283.4 307.1s9.9 8.23 17.48 11.25c7.58 3.01 19.23 2.82 20.9-1.12 1.66-3.93-2.89-35.12-6.8-43.32-3.92-8.2-8.1-8.35-15-8.98-6.92-.63-20.74 5-23.17 11.67-2.44 6.66.34 16.1 2.35 21.7a41.11 41.11 0 004.24 8.8v0z" stroke="#263238" stroke-linecap="round" stroke-linejoin="round"/><path d="M315.72 286.75c.16 3.95-2.32 7.26-5.5 7.38-3.17.12-5.95-2.96-6.1-6.86-.15-3.9 2.32-7.26 5.5-7.4 3.17-.13 5.95 2.89 6.1 6.88zm7.77-1.54c.17 3.95-1.1 7.2-2.84 7.27-1.73.07-3.27-3.07-3.42-7.02-.15-3.95 1.13-7.22 2.86-7.29 1.73-.07 3.25 3.09 3.4 7.04z" stroke="#263238" stroke-linecap="round" stroke-linejoin="round"/><path d="M316.13 285.3s11.35 2.15 10.25 4.88c-1.1 2.73-8.77 5.68-8.77 5.68" fill="#fff"/><path d="M316.13 285.3s11.35 2.15 10.25 4.88c-1.1 2.73-8.77 5.68-8.77 5.68M315.43 284s.16-1.37 1.9-.5m-13.57 4.32l-20.63 8.1" stroke="#263238" stroke-linecap="round" stroke-linejoin="round"/><path d="M304.04 281.15a5.24 5.24 0 015.14-3.1m8.6.1l-3.17 1.19" stroke="#263238" stroke-width="2" stroke-linecap="round" stroke-linejoin="round"/><path d="M310.62 287.46c.2 1.37 0 2.55-.56 2.62-.57.07-1.06-.99-1.25-2.37-.2-1.39.07-2.54.57-2.6.51-.08 1.06.98 1.24 2.35z" fill="#263238"/><path d="M285.05 295.98s-1.37 2.75 2.5 2.88c3.87.14 6.51-1.74 4.63-4.11-1.88-2.38-4.67-4.6-1.8-7.7s8.45-5.7 5.32-9.16c-3.13-3.46-14.66-.32-11.78-3.12 2.89-2.8 16.22-5.72 22.2-5.35 6 .37 17.18-4.27 19.64-10.33 2.46-6.07-.97-17.28-9.03-16.67-8.05.6-14.05 7.72-17.62 8.23-3.58.5-10.9-3.46-17.04 0-6.14 3.46-6.35 13.4-6.87 14.61-.52 1.22-8.85 3.03-10.32 11.44a22.39 22.39 0 005.8 18.95c3.45 3.75 5 5.17 5 5.17l9.37-4.84z" fill="#68D391" stroke="#263238" stroke-linecap="round" stroke-linejoin="round"/><path d="M267.57 280.78a6.5 6.5 0 00.88 3.65m34.15-25.37s-3-6.54 4.64-6.54 8.74 9.6.82 13.08c-7.91 3.49-25.13 4.37-34.41 8.47a12.07 12.07 0 00-4.73 3.33m19.84 4.9c-2.75 1-6.3 2.36-9.92 4.04-7.65 3.55-6.02 7.09-6.02 7.09m21.04-12.81s-.68.19-1.82.56" stroke="#fff" stroke-width=".75" stroke-linecap="round" stroke-linejoin="round"/><path d="M286.36 298.92s-4.44-6.4-9.11-3.83c-4.68 2.57-1.05 11.69 1.77 14.86 2.82 3.17 8.24-2.74 8.8-4.23" fill="#fff"/><path d="M286.36 298.92s-4.44-6.4-9.11-3.83c-4.68 2.57-1.05 11.69 1.77 14.86 2.82 3.17 8.24-2.74 8.8-4.23" fill="#0F4C81"/><path opacity=".5" d="M286.36 298.92s-4.44-6.4-9.11-3.83c-4.68 2.57-1.05 11.69 1.77 14.86 2.82 3.17 8.24-2.74 8.8-4.23" fill="#fff"/><path d="M286.36 298.92s-4.44-6.4-9.11-3.83c-4.68 2.57-1.05 11.69 1.77 14.86 2.82 3.17 8.24-2.74 8.8-4.23" stroke="#263238" stroke-linecap="round" stroke-linejoin="round"/><path d="M230.31 293.09h-98.49a7.03 7.03 0 00-7.03 7.02v71.9a7.03 7.03 0 007.03 7.02h98.49a7.03 7.03 0 007.04-7.03v-71.89a7.03 7.03 0 00-7.04-7.02z" fill="#fff" stroke="#263238" stroke-linecap="round" stroke-linejoin="round"/><path d="M235.2 354.9l65.95 17.16-65.95-32.24" fill="#fff"/><path d="M235.2 354.9l65.95 17.16-65.95-32.24" stroke="#263238" stroke-linecap="round" stroke-linejoin="round"/><path d="M160.36 301.35h-26.48v69.42h26.48v-69.42zm71.14 0h-3.3v69.42h3.3v-69.42z" fill="#007A5E" stroke="#004231" stroke-linecap="round" stroke-linejoin="round"/><path d="M231.5 333.08h-3.3v5.93h3.3v-5.93z" fill="#68D391" stroke="#263238" stroke-linecap="round" stroke-linejoin="round"/><path d="M168.65 303h52.14m-52.14 7.43h52.14m-52.14 7.45h52.14m-52.14 7.44h52.14m-52.14 18.17h52.14m-52.14 6.62h52.14m-52.14 6.61h52.14m-52.14 13.72h52.14m-86.9.32l26.48-69.41" stroke="#263238" stroke-linecap="round" stroke-linejoin="round"/><path d="M532.93 562.88c12.7 0 22.99-4.61 22.99-10.3 0-5.68-10.3-10.28-22.99-10.28-12.7 0-22.98 4.6-22.98 10.29 0 5.68 10.29 10.29 22.98 10.29z" fill="#0F4C81"/><path opacity=".5" d="M532.93 562.88c12.7 0 22.99-4.61 22.99-10.3 0-5.68-10.3-10.28-22.99-10.28-12.7 0-22.98 4.6-22.98 10.29 0 5.68 10.29 10.29 22.98 10.29z" fill="#fff"/><path d="M506.04 400.32c2.46 1.07 8.48.94 8.48.94s-1.29-3.94-1.37-4.12c-1.38-2.74-5.5-7.31-8.9-6.86a4.15 4.15 0 00-1.55.63 4.12 4.12 0 00-1.78 2.77 4.1 4.1 0 00.08 1.67c.51 2.31 2.94 4.05 5.04 4.97z" fill="#263238"/><path d="M584.86 379.87c-3.41-.36-7.46 4.29-8.71 7.09a58.1 58.1 0 00-1.3 4.21h.07c-.64.73-1.37 1.52-2.04 2.4a75.56 75.56 0 00-4.32 5.63 70.7 70.7 0 00-4.46 7.1 52.7 52.7 0 00-3.82 8.6.26.26 0 000 .1v-4.03c-.4-3.02-2.94-8.66-6.32-9.28a4.13 4.13 0 00-4.23 2.2 4.11 4.11 0 00-.45 1.62c-.19 2.4 1.56 4.81 3.26 6.34 1.92 1.71 7.25 3.37 7.68 3.5a74.09 74.09 0 00-2.25 9.3c-.33 1.84-.6 3.69-.85 5.55v-1.75c-.4-3.03-2.95-8.66-6.31-9.28a4.12 4.12 0 00-4.69 3.8c-.19 2.42 1.56 4.82 3.26 6.34 1.7 1.53 6.25 3.06 7.46 3.45l-.27 2.14c-.42 3.43-.8 6.86-1.3 10.22-.17 1.18-.38 2.33-.59 3.48v-1.5c-.4-3.04-2.94-8.66-6.32-9.3a4.13 4.13 0 00-4.67 3.82c-.19 2.41 1.55 4.82 3.26 6.34 1.7 1.52 5.81 2.9 7.24 3.36a85.76 85.76 0 01-.8 3.5c-.22.77-.38 1.52-.64 2.28-.27.75-.48 1.5-.73 2.25-.51 1.37-1.03 2.88-1.57 4.24-.37.96-.74 1.86-1.1 2.74.18-1.18.5-3.49.5-3.68a15.7 15.7 0 00-2.1-7.65 6.3 6.3 0 000-.9 4.11 4.11 0 00-1.74-2.79 4.11 4.11 0 00-3.23-.63c-3.3.87-5.4 6.68-5.57 9.72 0 .2.1 2.16.2 3.4l-.5-2.16a217 217 0 00-1.15-4.48l-.68-2.26c-.24-.75-.54-1.54-.8-2.32a67.8 67.8 0 00-2.21-5.35c1.29-.3 5.82-1.45 7.65-2.85 1.83-1.4 3.74-3.67 3.71-6.08a4.04 4.04 0 00-4.37-4.12c-3.42.37-6.37 5.8-7 8.78 0 .2-.23 2.4-.32 3.6a110.11 110.11 0 00-1.49-3.2c-1.52-3.06-3.16-6.1-4.78-9.16a107.32 107.32 0 01-1.47-2.82c.46-.1 5.88-1.37 7.92-2.92 1.81-1.37 3.73-3.66 3.72-6.08a4.1 4.1 0 00-1.3-3 4.12 4.12 0 00-3.08-1.11c-3.41.37-6.36 5.79-6.98 8.78 0 .22-.33 3.39-.37 4.2a145.02 145.02 0 01-3.08-6.22 71.55 71.55 0 01-3.34-8.61c.2 0 5.88-1.38 7.97-2.94 1.81-1.37 3.74-3.66 3.72-6.08a4.1 4.1 0 00-1.3-3 4.11 4.11 0 00-3.08-1.11c-3.4.37-6.36 5.79-6.98 8.78 0 .24-.36 3.65-.37 4.26 0-.17-.13-.34-.18-.52a51.69 51.69 0 01-1.73-9.1 61.9 61.9 0 01-.33-4.93c1.08-.13 6-.79 8.05-2.02 2.05-1.23 4.12-3.22 4.37-5.64a4.11 4.11 0 00-.95-3.15 4.13 4.13 0 00-2.95-1.44c-3.44 0-6.97 5.06-7.92 7.95 0 .17-.38 1.83-.62 3.05v-2.16a88.53 88.53 0 01.68-10.33c.99-.67 4.94-3.47 6.17-5.48 1.22-2.02 2.17-4.77 1.27-7a4.01 4.01 0 00-.88-1.44 4.05 4.05 0 00-4.7-.85c-3.04 1.56-3.84 7.68-3.35 10.7 0 .26 1.2 4.25 1.25 4.22-.12.96-.26 2-.38 3.13-.2 2.1-.43 4.48-.48 7.08a73.05 73.05 0 00.2 8.38 53.02 53.02 0 001.56 9.27.26.26 0 000 .1c-.54-.83-2.13-3.15-2.27-3.31-2-2.32-7.23-5.6-10.39-4.27a4.12 4.12 0 00-2.31 4.15c.06.56.23 1.1.51 1.6 1.17 2.12 3.96 3.17 6.23 3.5 2.54.37 7.91-1.18 8.34-1.3a72.95 72.95 0 003.25 8.98 122.38 122.38 0 002.37 5.1c-.5-.71-.94-1.37-1-1.37-2.01-2.3-7.25-5.6-10.4-4.27a4.12 4.12 0 00-1.8 5.77c1.17 2.1 3.96 3.17 6.22 3.5 2.25.32 6.87-.91 8.12-1.25.31.64.63 1.29.96 1.93 1.55 3.1 3.12 6.17 4.56 9.23a46.69 46.69 0 011.37 3.26 26.46 26.46 0 00-.86-1.25c-2-2.3-7.24-5.6-10.39-4.27a4.12 4.12 0 00-1.8 5.76c1.17 2.12 3.96 3.16 6.21 3.49 2.26.33 6.46-.78 7.9-1.18.44 1.12.9 2.25 1.27 3.36.24.75.53 1.47.73 2.25.19.78.42 1.52.64 2.28.34 1.46.72 2.97 1.03 4.4.22 1 .41 1.95.6 2.9a108.1 108.1 0 00-1.6-3.32c-1.64-2.6-6.3-6.64-9.62-5.8a4.04 4.04 0 00-2.95 3.76c-.02.57.08 1.14.3 1.67.82 2.26 3.42 3.71 5.6 4.39 2.42.72 7.75 0 8.41 0 .32 1.59.62 3.14.87 4.6a197.51 197.51 0 011.8 12.35c0 .54.1 1 .16 1.46h-10.31l3.3 64.62a9.24 9.24 0 002.88 6.22 9.26 9.26 0 0012.74 0 9.23 9.23 0 002.87-6.22l3.32-64.62h-9.62l.22-.44a179 179 0 005.13-11.51 192.88 192.88 0 001.9-4.86c.64.14 5.92 1.2 8.38.65 2.24-.5 4.93-1.76 5.93-3.96a4.1 4.1 0 00-.82-4.7 4.12 4.12 0 00-1.42-.9c-3.25-1.1-8.24 2.6-10.03 5.06-.1.13-1.08 1.85-1.69 2.93l.77-2.08c.52-1.38 1-2.83 1.51-4.37l.68-2.26c.22-.77.4-1.58.61-2.37.44-1.86.8-3.75 1.12-5.67 1.23.45 5.66 1.99 7.95 1.82 2.3-.16 5.14-1 6.46-3.01a4.1 4.1 0 00.6-3.24 4.13 4.13 0 00-1.97-2.64c-3.05-1.58-8.5 1.37-10.68 3.47-.14.14-1.52 1.87-2.27 2.83.2-1.17.37-2.32.53-3.48.42-3.4.74-6.86 1.07-10.3l.33-3.14c.44.17 5.66 2.1 8.24 1.92 2.28-.16 5.14-1 6.46-3.01a4.1 4.1 0 00.6-3.24 4.11 4.11 0 00-1.98-2.64c-3.05-1.57-8.51 1.38-10.67 3.47-.17.17-2.16 2.65-2.63 3.31.24-2.32.51-4.62.87-6.86a72.14 72.14 0 011.97-9.04c.2.08 5.64 2.13 8.24 1.93 2.28-.15 5.14-.98 6.46-3.01a4.1 4.1 0 00.6-3.24 4.11 4.11 0 00-1.98-2.64c-3.05-1.56-8.5 1.38-10.67 3.49a82.5 82.5 0 00-2.65 3.35c0-.17.08-.36.13-.52a51.86 51.86 0 013.59-8.57 54.8 54.8 0 012.44-4.28c.98.48 5.5 2.65 7.84 2.75 2.33.1 5.2-.43 6.74-2.3a4.1 4.1 0 00-.7-5.99c-2.86-1.9-8.6.39-10.99 2.3-.12.1-1.37 1.36-2.2 2.19l1.16-1.83c1.44-2.15 2.88-4.03 4.12-5.7.74-.94 1.44-1.76 2.09-2.54 1.2 0 6.06-.17 8.17-1.16 2.12-.98 4.44-2.74 4.93-5.14a4.1 4.1 0 00-.5-3.38 4.12 4.12 0 00-2.9-1.83zM547.1 471.3a209.61 209.61 0 01-5.31 11.27l-.75 1.47h-.23l-.23-1.74a196.85 196.85 0 00-2.08-12.35c-.33-1.62-.7-3.35-1.1-5.1a48.44 48.44 0 004.7-2.2 29.06 29.06 0 006.87 4.4c-.66 1.43-1.26 2.89-1.87 4.25z" fill="#263238"/><path d="M566.9 401.64s1.08-4 1.13-4.25c.42-3.04-.55-9.13-3.63-10.62a4.13 4.13 0 00-3.28.03 4.13 4.13 0 00-2.22 2.4c-.82 2.29.22 5.07 1.47 7 1.43 2.24 6.52 5.44 6.53 5.44z" fill="#263238"/><g clip-path="url(#clip0)"><path fill-rule="evenodd" clip-rule="evenodd" d="M177.26 329.35v7.39h2.72V338h-4.17v-8.66h1.45zm7.83 3.68v-.78h1.37V338h-1.37v-.78a1.89 1.89 0 01-.79.68c-.34.17-.68.25-1.02.25-.45 0-.86-.08-1.23-.24a2.87 2.87 0 01-.95-.66 3.06 3.06 0 01-.83-2.13 3.08 3.08 0 01.83-2.13c.27-.28.6-.5.95-.66a3.02 3.02 0 011.23-.24c.34 0 .68.08 1.02.25.34.16.6.39.79.68zm-.13 2.8a2 2 0 000-1.4 1.71 1.71 0 00-.9-.98 1.69 1.69 0 00-.7-.15 1.65 1.65 0 00-1.26.54 1.7 1.7 0 00-.34.58 2.04 2.04 0 00-.12.7c0 .26.04.5.12.71a1.69 1.69 0 00.89.98c.2.1.44.15.7.15a1.67 1.67 0 001.26-.54c.15-.17.27-.37.35-.59zm2.58 2.18v-5.76h3.73v1.32h-2.35v4.44h-1.37zm8.7-4.98v-.78h1.38V338h-1.37v-.78a1.88 1.88 0 01-.8.68c-.33.17-.67.25-1.02.25-.44 0-.85-.08-1.22-.24a2.86 2.86 0 01-.95-.66 3.08 3.08 0 01-.84-2.13 3.08 3.08 0 01.84-2.13c.27-.28.6-.5.95-.66a3.02 3.02 0 011.22-.24c.35 0 .69.08 1.03.25.34.16.6.39.79.68zm-.12 2.8a1.98 1.98 0 00.13-.7c0-.25-.05-.48-.13-.7a1.78 1.78 0 00-.35-.59 1.69 1.69 0 00-1.26-.54 1.65 1.65 0 00-1.25.54 1.7 1.7 0 00-.34.58 2.06 2.06 0 00-.12.7c0 .26.04.5.12.71a1.69 1.69 0 00.88.98c.21.1.45.15.7.15a1.67 1.67 0 001.27-.54c.15-.17.27-.37.35-.58zm7-3.58h1.4l-2.26 5.76h-1.73l-2.25-5.76h1.4l1.72 4.41 1.72-4.41zm4.38-.15c1.87 0 3.15 1.63 2.9 3.53h-4.54c0 .5.5 1.46 1.72 1.46 1.04 0 1.74-.9 1.74-.9l.93.7c-.83.87-1.5 1.27-2.57 1.27-1.9 0-3.19-1.18-3.19-3.03a3.01 3.01 0 013.01-3.03zm-1.64 2.53h3.29c-.01-.11-.19-1.46-1.66-1.46s-1.62 1.35-1.63 1.46zm5.44 3.38v-8.66h1.37v8.66h-1.37z" fill="#FF2D20"/></g><defs><clipPath id="clip0"><path fill="#fff" d="M175.7 329.06h37.19v9.3H175.7z"/></clipPath></defs></svg>